<?xml version="1.0" encoding="utf-8"?>
<!-- Generator: Adobe Illustrator 23.0.6, SVG Export Plug-In . SVG Version: 6.00 Build 0)  -->
<svg version="1.1" id="Layer_1" xmlns="http://www.w3.org/2000/svg" xmlns:xlink="http://www.w3.org/1999/xlink" x="0px" y="0px"
	 viewBox="0 0 32.25 19.57" style="enable-background:new 0 0 32.25 19.57;" xml:space="preserve">
<style type="text/css">
	.st0{fill:#F4E9C6;}
	.st1{fill:#FFFFFF;}
	.st2{fill:#484C48;}
	.st3{fill:none;stroke:#44E073;stroke-miterlimit:10;}
	.st4{fill:#44E073;}
</style>
<g>
	<path class="st2" d="M2.62,5.34c0.26-0.36,0.16-0.66-0.1-0.66c-0.28,0-0.79,0.59-1,1.56c-0.24,1.14,0.4,1.83,1.14,1.74
		c1.18-0.16,1.99-1.45,2.6-2.88c0.11-0.24,0.58-0.16,0.42,0.35C5.16,7.06,3.9,9.31,2.08,9.31c-1.13,0-2.41-1-2-2.82
		c0.37-1.76,1.71-2.79,2.78-2.79c0.96,0,1.58,0.58,1.3,1.22C3.78,5.73,2.09,6.03,2.62,5.34z"/>
	<path class="st2" d="M5.94,7.26c-0.11,1.42-0.22,2.1-0.59,2.31C5,9.77,4.41,9.52,4.41,9.04c0-0.19,0.12-0.48,0.28-0.77
		c-0.01-0.83,0-2.19,0.16-3.74C5.14,1.45,6.47,0,7.31,0c0.86,0,1.34,0.92-1.24,5.5c-0.02,0.2-0.04,0.38-0.05,0.58
		C7.2,4.2,7.82,3.49,8.67,3.49c0.72,0,0.83,0.8,0.35,2.15c-0.5,1.39-0.43,2.33,0.06,2.33c0.53,0,1.31-1.28,1.85-2.51
		c0.1-0.24,0.58-0.16,0.41,0.35c-0.48,1.49-1.51,3.49-2.71,3.49c-0.86,0-1.56-0.79-1.33-2.4C7.4,6.15,7.9,5.13,8.09,4.73
		c0.13-0.29,0.1-0.42-0.06-0.42C7.78,4.31,7.31,4.89,5.94,7.26z M6.23,4.15c1.1-2.03,1.28-2.88,1.06-2.88
		C6.99,1.27,6.48,2.58,6.23,4.15z"/>
	<path class="st2" d="M13.38,4.29c0.12-0.18,0.26-0.31,0.4-0.37c0.36-0.18,0.85,0,0.91,0.47c0.04,0.41-0.08,0.94-0.26,1.43
		c-0.11,0.29-0.23,0.61-0.37,0.95c-0.06,0.7,0.05,1.2,0.32,1.2c0.55,0,1.25-1.51,1.83-2.87c0.11-0.24,0.59-0.16,0.42,0.35
		c-0.53,1.62-1.51,3.85-2.71,3.85c-0.44,0-0.8-0.23-1.03-0.67c-0.4,0.41-0.86,0.67-1.42,0.67c-0.98,0-1.7-1.24-1.51-2.72
		c0.22-1.79,1.37-2.88,2.37-2.88C12.94,3.69,13.24,3.96,13.38,4.29z M12.65,7.82c-0.04-0.3-0.05-0.65-0.01-1.04
		c0.02-0.35,0.07-0.67,0.14-0.98c0,0,0.01-0.01,0.01-0.02c0.18-0.77,0.28-1.25-0.07-1.25c-0.52,0-1.15,0.59-1.36,1.6
		c-0.25,1.18,0.23,1.97,0.94,1.85C12.42,7.95,12.54,7.89,12.65,7.82z"/>
	<path class="st2" d="M18.75,6.12c-0.54,1.19-0.38,1.85,0.04,1.85c0.56,0,1.33-1.64,1.87-2.87c0.1-0.24,0.58-0.16,0.41,0.35
		c-0.48,1.49-1.51,3.85-2.71,3.85c-0.86,0-1.54-0.79-1.33-2.4c0.06-0.43,0.2-0.89,0.37-1.28c-0.3,0.2-0.66,0.36-0.98,0.36
		c-0.78,0-1.15-0.6-1.16-1.33c-0.01-0.62,0.41-1.46,0.97-1.56C16.67,3,16.92,3.26,16.86,3.9c-0.05,0.54-0.18,1.04-0.3,1.39
		c0.38-0.18,0.71-0.52,0.91-0.83c0.43-0.64,0.97-0.73,1.42-0.48C19.38,4.27,19.33,4.82,18.75,6.12z"/>
	<path class="st2" d="M21.21,6c-0.18,1.04,0.02,1.97,0.41,1.97c0.53,0,1.31-1.28,1.83-2.51c0.11-0.24,0.59-0.16,0.42,0.35
		c-0.48,1.49-1.51,3.49-2.71,3.49c-0.83,0-1.68-1.15-1.45-2.76c0.25-1.78,0.85-2.65,1.58-2.65C22.19,3.89,22.17,4.76,21.21,6z
		 M21.54,2.78c-0.49,0-0.77-0.55-0.72-0.94c0.07-0.61,0.65-0.95,1.15-0.95c0.5,0,0.92,0.34,0.72,0.95
		C22.58,2.23,22.04,2.78,21.54,2.78z"/>
	<path class="st2" d="M25.16,7.96c0.67,0,1.51-1.28,2.04-2.51c0.11-0.24,0.59-0.16,0.42,0.35c-0.48,1.49-1.64,3.49-2.91,3.49
		c-1.25,0-1.9-1.6-1.55-4.39c0.01-0.14,0.04-0.29,0.06-0.42c-0.43-0.22-0.6-0.52-0.55-0.76c0.04-0.22,0.24-0.2,0.71-0.17
		c0.31-1.52,0.77-2.46,1.24-2.72c0.58-0.34,1.34-0.12,1.13,0.31c-0.4,0.78-0.7,1.56-0.92,2.42c0.72-0.06,1.03-0.19,1.24-0.19
		c0.41,0,0.05,1.33-0.47,1.39c-0.23,0.02-0.61,0.01-1.02-0.04c-0.04,0.22-0.07,0.43-0.1,0.66C24.26,7.08,24.64,7.96,25.16,7.96z"/>
	<path class="st2" d="M30.25,6.56c-0.11,0.78-0.24,1.49-0.38,2.12c0.89-0.7,1.51-1.95,1.99-3.59c0.07-0.24,0.48-0.05,0.37,0.47
		c-0.48,2.35-1.44,3.53-2.6,4.03c-0.48,1.6-1.18,2.53-2.28,2.66c-0.89,0.1-1.83-0.65-1.59-1.6c0.2-0.79,1.29-1.19,2.76-1.39
		c0.02,0,0.05,0,0.07-0.01c0.06-0.19,0.11-0.4,0.17-0.61c-0.36,0.34-0.73,0.54-1.08,0.54c-0.85,0-1.52-0.9-1.44-2.53
		c0.07-1.79,0.58-3.01,1.31-3.01c0.78,0,0.88,0.97-0.01,2.41c-0.02,0.05-0.05,0.07-0.07,0.1c-0.16,1.02,0.08,1.7,0.55,1.7
		c0.3,0,0.64-0.22,0.97-0.59c0.04-0.28,0.06-0.55,0.08-0.85c0.12-1.73,0.67-2.77,1.42-2.77c0.89,0,0.46,1.28-0.18,2.81L30.25,6.56z
		 M28.34,9.93c-0.62,0.12-1.24,0.24-1.37,0.49c-0.16,0.26,0,0.55,0.29,0.55C27.64,10.97,28.02,10.6,28.34,9.93z"/>
</g>
<g>
	<path class="st2" d="M12.79,16.84c0.02,1.04,0.34,1.39,0.66,1.39c0.53,0,1.29-1.64,1.83-2.87c0.11-0.24,0.59-0.16,0.42,0.35
		c-0.48,1.49-1.52,3.85-2.71,3.85c-0.92,0-1.81-1.76-1.39-4.76c0.47-3.27,1.73-4.53,2.61-4.53C15.12,10.27,15.79,11.88,12.79,16.84z
		 M12.85,15.74c1.44-2.52,1.57-4.2,1.34-4.2c-0.4,0-0.92,1.16-1.29,3.79C12.88,15.48,12.87,15.61,12.85,15.74z"/>
	<path class="st2" d="M15.85,16.27c-0.18,1.04,0.02,1.97,0.41,1.97c0.53,0,1.31-1.28,1.83-2.51c0.11-0.24,0.59-0.16,0.42,0.35
		c-0.48,1.49-1.51,3.49-2.71,3.49c-0.83,0-1.68-1.15-1.45-2.76c0.25-1.78,0.85-2.65,1.58-2.65C16.84,14.16,16.81,15.03,15.85,16.27z
		 M16.19,13.05c-0.49,0-0.77-0.55-0.72-0.94c0.07-0.61,0.65-0.95,1.15-0.95c0.5,0,0.92,0.34,0.72,0.95
		C17.22,12.5,16.68,13.05,16.19,13.05z"/>
	<path class="st2" d="M19.35,17.16c-0.13-0.56-0.5-0.98-1.13-1.37c-0.67-0.41-0.89-0.67-0.85-1.4c0.06-1.15,1.28-1.52,1.74-1.1
		c0.25,0.25,0.05,0.71-0.25,1.19c-0.25,0.34-0.24,0.52,0.11,0.56c0.85,0.13,1.71,0.82,1.89,1.97c0.41-0.16,0.73-0.5,1.07-1.27
		c0.11-0.24,0.59-0.16,0.42,0.35c-0.31,0.96-0.73,1.43-1.46,1.58c-0.08,1.35-0.96,1.93-1.76,1.94c-0.79,0.01-1.21-0.62-1.09-1.31
		C18.11,17.74,18.55,17.29,19.35,17.16z M19.38,17.77c-0.36,0.06-0.64,0.2-0.72,0.44c-0.07,0.19-0.04,0.43,0.16,0.46
		C19.07,18.72,19.33,18.34,19.38,17.77z"/>
	<path class="st2" d="M23.39,18.24c0.67,0,1.51-1.28,2.04-2.51c0.11-0.24,0.59-0.16,0.42,0.35c-0.48,1.49-1.64,3.49-2.91,3.49
		c-1.25,0-1.9-1.6-1.55-4.39c0.01-0.14,0.04-0.29,0.06-0.42c-0.43-0.22-0.6-0.52-0.55-0.76c0.04-0.22,0.24-0.2,0.71-0.17
		c0.31-1.52,0.77-2.46,1.24-2.72c0.58-0.34,1.34-0.12,1.13,0.31c-0.4,0.78-0.7,1.56-0.92,2.42c0.72-0.06,1.03-0.19,1.24-0.19
		c0.41,0,0.05,1.33-0.47,1.39c-0.23,0.02-0.61,0.01-1.02-0.04c-0.04,0.22-0.07,0.43-0.1,0.66C22.49,17.35,22.87,18.24,23.39,18.24z"
		/>
</g>
<path class="st2" d="M8.94,16.15H3.46c-0.35,0-0.63-0.28-0.63-0.63v-0.23c0-0.35,0.28-0.63,0.63-0.63h5.48
	c0.35,0,0.63,0.28,0.63,0.63v0.23C9.58,15.87,9.29,16.15,8.94,16.15z"/>
<path class="st2" d="M8.94,18.4H3.46c-0.35,0-0.63-0.28-0.63-0.63v-0.23c0-0.35,0.28-0.63,0.63-0.63h5.48
	c0.35,0,0.63,0.28,0.63,0.63v0.23C9.58,18.12,9.29,18.4,8.94,18.4z"/>
<path class="st2" d="M8.94,13.9H3.46c-0.35,0-0.63-0.28-0.63-0.63v-0.23c0-0.35,0.28-0.63,0.63-0.63h5.48
	c0.35,0,0.63,0.28,0.63,0.63v0.23C9.58,13.62,9.29,13.9,8.94,13.9z"/>
</svg>
