<?xml version="1.0" encoding="utf-8"?>
<!-- Generator: Adobe Illustrator 23.0.6, SVG Export Plug-In . SVG Version: 6.00 Build 0)  -->
<svg version="1.1" id="Layer_1" xmlns="http://www.w3.org/2000/svg" xmlns:xlink="http://www.w3.org/1999/xlink" x="0px" y="0px"
	 viewBox="0 0 1325.9 562" style="enable-background:new 0 0 1325.9 562;" xml:space="preserve">
<g>
	<path d="M277.1,213.2c-6.7,47.7-14.7,91.2-23.3,129.7c54.5-42.8,92.4-119.3,121.8-219.7c4.3-14.7,29.4-3.1,22.6,28.8
		c-29.4,143.8-88.1,216-159.1,246.6C209.8,496.6,167,553.5,99.6,561.5c-54.5,6.1-112-39.8-97.3-97.3c12.2-48.4,78.9-72.8,168.9-85.1
		c1.2,0,3.1,0,4.3-0.6c3.7-11.6,6.7-24.5,10.4-37.3c-22,20.8-44.7,33-66.1,33c-52,0-93-55.1-88.1-154.8
		C36,109.8,67.2,35.1,111.9,35.1c47.7,0,53.9,59.4-0.6,147.5c-1.2,3.1-3.1,4.3-4.3,6.1c-9.8,62.4,4.9,104,33.7,104
		c18.4,0,39.2-13.5,59.4-36.1c2.4-17.1,3.7-33.7,4.9-52c7.3-105.9,41-169.5,86.9-169.5c54.5,0,28.2,78.3-11,172L277.1,213.2z
		 M159.6,419.5c-37.9,7.3-75.9,14.7-83.8,30c-9.8,15.9,0,33.7,17.7,33.7C116.8,483.7,140.6,460.5,159.6,419.5z"/>
	<path d="M416.7,85.3c15.3-42.8,52.6-69.2,102.8-60c58.8,10.4,98.5,82,77.1,184.2l-2.4,8.6c30.6-6.7,55.7-30,74.7-72.8
		c6.1-14.7,35.5-9.8,25.1,21.4c-18.4,52.6-60,92.4-115.1,100.4c-29.4,72.8-82,113.2-146.3,113.2c-67.3,0-129.7-69.2-108.9-172
		C337.1,144.1,376.3,103.1,416.7,85.3z M416.7,169.2c-1.2,6.1-3.1,11-3.7,17.1c-14.1,67.3,2.4,114.4,47.1,114.4
		c19.6,0,40.4-14.1,56.3-37.3C465,249.3,430.7,209.6,416.7,169.2z M539.1,215.1c2.4-6.1,3.7-11.6,4.9-18.4
		c9.8-47.1-1.2-114.4-34.3-118.7c-25.1-3.7-33.7,25.7-29.4,56.3C484.6,168.6,510.9,202.8,539.1,215.1z"/>
	<path d="M699.4,187.5c-10.4,64.9,3.7,111.4,32.4,111.4c17.7,0,41.6-22,66.1-53.9c-1.2-13.5-1.2-26.3-0.6-41
		c6.1-106.5,41-169.5,86.9-169.5c54.5,0,37.9,52.6,3.7,137.1c-7.3,64.9,4.9,127.3,26.9,127.3c32.4,0,79-78.3,112-153.6
		c6.7-14.7,35.5-9.8,25.7,21.4c-29.4,91.2-93,213.6-166.5,213.6c-30.6,0-58.8-28.2-74.7-72.8c-31.8,41.6-66.7,72.8-99.8,72.8
		c-52,0-91.8-61.8-87.5-161.6c4.3-109.6,35.5-184.2,80.2-184.2c47.7,0,53.9,59.4-0.6,147.5L699.4,187.5z"/>
	<path d="M1181.7,186.3c-33,72.8-23.3,113.2,2.4,113.2c34.3,0,81.4-100.4,114.4-175.7c6.1-14.7,35.5-9.8,25.1,21.4
		c-29.4,91.2-92.4,235.6-165.9,235.6c-52.6,0-94.3-48.4-81.4-146.9c3.7-26.3,12.2-54.5,22.6-78.3c-18.4,12.2-40.4,22-60,22
		c-47.7,0-70.4-36.7-71-81.4c-0.6-37.9,25.1-89.4,59.4-95.5c28.2-4.9,43.5,11,39.8,50.2c-3.1,33-11,63.7-18.4,85.1
		c23.3-11,43.5-31.8,55.7-50.8c26.3-39.2,59.4-44.7,86.9-29.4C1220.9,73.1,1217.8,106.7,1181.7,186.3z"/>
</g>
</svg>
